<svg xmlns="http://www.w3.org/2000/svg" width="2258" height="1255" style="cursor: move;"><g><path class="link" marker-end="" d="M1019,467.5C999,467.5 999,647.5 979,647.5" style="stroke-width: 0.55; stroke-opacity: 1; stroke: rgb(80, 80, 80); fill: none;"></path><path class="link" marker-end="" d="M1019,467.5C1019,467.5 1019,647.5 1019,647.5" style="stroke-width: 0.55; stroke-opacity: 1; stroke: rgb(80, 80, 80); fill: none;"></path><path class="link" marker-end="" d="M1019,467.5C1039,467.5 1039,647.5 1059,647.5" style="stroke-width: 0.55; stroke-opacity: 1; stroke: rgb(80, 80, 80); fill: none;"></path><path class="link" marker-end="" d="M1019,467.5C1059,467.5 1059,647.5 1099,647.5" style="stroke-width: 0.55; stroke-opacity: 1; stroke: rgb(80, 80, 80); fill: none;"></path><path class="link" marker-end="" d="M1019,467.5C1079,467.5 1079,647.5 1139,647.5" style="stroke-width: 0.55; stroke-opacity: 1; stroke: rgb(80, 80, 80); fill: none;"></path><path class="link" marker-end="" d="M1019,467.5C1099,467.5 1099,647.5 1179,647.5" style="stroke-width: 0.55; stroke-opacity: 1; stroke: rgb(80, 80, 80); fill: none;"></path><path class="link" marker-end="" d="M1019,467.5C1119,467.5 1119,647.5 1219,647.5" style="stroke-width: 0.55; stroke-opacity: 1; stroke: rgb(80, 80, 80); fill: none;"></path><path class="link" marker-end="" d="M1019,467.5C1139,467.5 1139,647.5 1259,647.5" style="stroke-width: 0.55; stroke-opacity: 1; stroke: rgb(80, 80, 80); fill: none;"></path><path class="link" marker-end="" d="M1059,467.5C1019,467.5 1019,647.5 979,647.5" style="stroke-width: 0.55; stroke-opacity: 1; stroke: rgb(80, 80, 80); fill: none;"></path><path class="link" marker-end="" d="M1059,467.5C1039,467.5 1039,647.5 1019,647.5" style="stroke-width: 0.55; stroke-opacity: 1; stroke: rgb(80, 80, 80); fill: none;"></path><path class="link" marker-end="" d="M1059,467.5C1059,467.5 1059,647.5 1059,647.5" style="stroke-width: 0.55; stroke-opacity: 1; stroke: rgb(80, 80, 80); fill: none;"></path><path class="link" marker-end="" d="M1059,467.5C1079,467.5 1079,647.5 1099,647.5" style="stroke-width: 0.55; stroke-opacity: 1; stroke: rgb(80, 80, 80); fill: none;"></path><path class="link" marker-end="" d="M1059,467.5C1099,467.5 1099,647.5 1139,647.5" style="stroke-width: 0.55; stroke-opacity: 1; stroke: rgb(80, 80, 80); fill: none;"></path><path class="link" marker-end="" d="M1059,467.5C1119,467.5 1119,647.5 1179,647.5" style="stroke-width: 0.55; stroke-opacity: 1; stroke: rgb(80, 80, 80); fill: none;"></path><path class="link" marker-end="" d="M1059,467.5C1139,467.5 1139,647.5 1219,647.5" style="stroke-width: 0.55; stroke-opacity: 1; stroke: rgb(80, 80, 80); fill: none;"></path><path class="link" marker-end="" d="M1059,467.5C1159,467.5 1159,647.5 1259,647.5" style="stroke-width: 0.55; stroke-opacity: 1; stroke: rgb(80, 80, 80); fill: none;"></path><path class="link" marker-end="" d="M1099,467.5C1039,467.5 1039,647.5 979,647.5" style="stroke-width: 0.55; stroke-opacity: 1; stroke: rgb(80, 80, 80); fill: none;"></path><path class="link" marker-end="" d="M1099,467.5C1059,467.5 1059,647.5 1019,647.5" style="stroke-width: 0.55; stroke-opacity: 1; stroke: rgb(80, 80, 80); fill: none;"></path><path class="link" marker-end="" d="M1099,467.5C1079,467.5 1079,647.5 1059,647.5" style="stroke-width: 0.55; stroke-opacity: 1; stroke: rgb(80, 80, 80); fill: none;"></path><path class="link" marker-end="" d="M1099,467.5C1099,467.5 1099,647.5 1099,647.5" style="stroke-width: 0.55; stroke-opacity: 1; stroke: rgb(80, 80, 80); fill: none;"></path><path class="link" marker-end="" d="M1099,467.5C1119,467.5 1119,647.5 1139,647.5" style="stroke-width: 0.55; stroke-opacity: 1; stroke: rgb(80, 80, 80); fill: none;"></path><path class="link" marker-end="" d="M1099,467.5C1139,467.5 1139,647.5 1179,647.5" style="stroke-width: 0.55; stroke-opacity: 1; stroke: rgb(80, 80, 80); fill: none;"></path><path class="link" marker-end="" d="M1099,467.5C1159,467.5 1159,647.5 1219,647.5" style="stroke-width: 0.55; stroke-opacity: 1; stroke: rgb(80, 80, 80); fill: none;"></path><path class="link" marker-end="" d="M1099,467.5C1179,467.5 1179,647.5 1259,647.5" style="stroke-width: 0.55; stroke-opacity: 1; stroke: rgb(80, 80, 80); fill: none;"></path><path class="link" marker-end="" d="M1139,467.5C1059,467.5 1059,647.5 979,647.5" style="stroke-width: 0.55; stroke-opacity: 1; stroke: rgb(80, 80, 80); fill: none;"></path><path class="link" marker-end="" d="M1139,467.5C1079,467.5 1079,647.5 1019,647.5" style="stroke-width: 0.55; stroke-opacity: 1; stroke: rgb(80, 80, 80); fill: none;"></path><path class="link" marker-end="" d="M1139,467.5C1099,467.5 1099,647.5 1059,647.5" style="stroke-width: 0.55; stroke-opacity: 1; stroke: rgb(80, 80, 80); fill: none;"></path><path class="link" marker-end="" d="M1139,467.5C1119,467.5 1119,647.5 1099,647.5" style="stroke-width: 0.55; stroke-opacity: 1; stroke: rgb(80, 80, 80); fill: none;"></path><path class="link" marker-end="" d="M1139,467.5C1139,467.5 1139,647.5 1139,647.5" style="stroke-width: 0.55; stroke-opacity: 1; stroke: rgb(80, 80, 80); fill: none;"></path><path class="link" marker-end="" d="M1139,467.5C1159,467.5 1159,647.5 1179,647.5" style="stroke-width: 0.55; stroke-opacity: 1; stroke: rgb(80, 80, 80); fill: none;"></path><path class="link" marker-end="" d="M1139,467.5C1179,467.5 1179,647.5 1219,647.5" style="stroke-width: 0.55; stroke-opacity: 1; stroke: rgb(80, 80, 80); fill: none;"></path><path class="link" marker-end="" d="M1139,467.5C1199,467.5 1199,647.5 1259,647.5" style="stroke-width: 0.55; stroke-opacity: 1; stroke: rgb(80, 80, 80); fill: none;"></path><path class="link" marker-end="" d="M1179,467.5C1079,467.5 1079,647.5 979,647.5" style="stroke-width: 0.55; stroke-opacity: 1; stroke: rgb(80, 80, 80); fill: none;"></path><path class="link" marker-end="" d="M1179,467.5C1099,467.5 1099,647.5 1019,647.5" style="stroke-width: 0.55; stroke-opacity: 1; stroke: rgb(80, 80, 80); fill: none;"></path><path class="link" marker-end="" d="M1179,467.5C1119,467.5 1119,647.5 1059,647.5" style="stroke-width: 0.55; stroke-opacity: 1; stroke: rgb(80, 80, 80); fill: none;"></path><path class="link" marker-end="" d="M1179,467.5C1139,467.5 1139,647.5 1099,647.5" style="stroke-width: 0.55; stroke-opacity: 1; stroke: rgb(80, 80, 80); fill: none;"></path><path class="link" marker-end="" d="M1179,467.5C1159,467.5 1159,647.5 1139,647.5" style="stroke-width: 0.55; stroke-opacity: 1; stroke: rgb(80, 80, 80); fill: none;"></path><path class="link" marker-end="" d="M1179,467.5C1179,467.5 1179,647.5 1179,647.5" style="stroke-width: 0.55; stroke-opacity: 1; stroke: rgb(80, 80, 80); fill: none;"></path><path class="link" marker-end="" d="M1179,467.5C1199,467.5 1199,647.5 1219,647.5" style="stroke-width: 0.55; stroke-opacity: 1; stroke: rgb(80, 80, 80); fill: none;"></path><path class="link" marker-end="" d="M1179,467.5C1219,467.5 1219,647.5 1259,647.5" style="stroke-width: 0.55; stroke-opacity: 1; stroke: rgb(80, 80, 80); fill: none;"></path><path class="link" marker-end="" d="M1219,467.5C1099,467.5 1099,647.5 979,647.5" style="stroke-width: 0.55; stroke-opacity: 1; stroke: rgb(80, 80, 80); fill: none;"></path><path class="link" marker-end="" d="M1219,467.5C1119,467.5 1119,647.5 1019,647.5" style="stroke-width: 0.55; stroke-opacity: 1; stroke: rgb(80, 80, 80); fill: none;"></path><path class="link" marker-end="" d="M1219,467.5C1139,467.5 1139,647.5 1059,647.5" style="stroke-width: 0.55; stroke-opacity: 1; stroke: rgb(80, 80, 80); fill: none;"></path><path class="link" marker-end="" d="M1219,467.5C1159,467.5 1159,647.5 1099,647.5" style="stroke-width: 0.55; stroke-opacity: 1; stroke: rgb(80, 80, 80); fill: none;"></path><path class="link" marker-end="" d="M1219,467.5C1179,467.5 1179,647.5 1139,647.5" style="stroke-width: 0.55; stroke-opacity: 1; stroke: rgb(80, 80, 80); fill: none;"></path><path class="link" marker-end="" d="M1219,467.5C1199,467.5 1199,647.5 1179,647.5" style="stroke-width: 0.55; stroke-opacity: 1; stroke: rgb(80, 80, 80); fill: none;"></path><path class="link" marker-end="" d="M1219,467.5C1219,467.5 1219,647.5 1219,647.5" style="stroke-width: 0.55; stroke-opacity: 1; stroke: rgb(80, 80, 80); fill: none;"></path><path class="link" marker-end="" d="M1219,467.5C1239,467.5 1239,647.5 1259,647.5" style="stroke-width: 0.55; stroke-opacity: 1; stroke: rgb(80, 80, 80); fill: none;"></path><path class="link" marker-end="" d="M979,647.5C1019,647.5 1019,827.5 1059,827.5" style="stroke-width: 0.55; stroke-opacity: 1; stroke: rgb(80, 80, 80); fill: none;"></path><path class="link" marker-end="" d="M979,647.5C1039,647.5 1039,827.5 1099,827.5" style="stroke-width: 0.55; stroke-opacity: 1; stroke: rgb(80, 80, 80); fill: none;"></path><path class="link" marker-end="" d="M979,647.5C1059,647.5 1059,827.5 1139,827.5" style="stroke-width: 0.55; stroke-opacity: 1; stroke: rgb(80, 80, 80); fill: none;"></path><path class="link" marker-end="" d="M979,647.5C1079,647.5 1079,827.5 1179,827.5" style="stroke-width: 0.55; stroke-opacity: 1; stroke: rgb(80, 80, 80); fill: none;"></path><path class="link" marker-end="" d="M1019,647.5C1039,647.5 1039,827.5 1059,827.5" style="stroke-width: 0.55; stroke-opacity: 1; stroke: rgb(80, 80, 80); fill: none;"></path><path class="link" marker-end="" d="M1019,647.5C1059,647.5 1059,827.5 1099,827.5" style="stroke-width: 0.55; stroke-opacity: 1; stroke: rgb(80, 80, 80); fill: none;"></path><path class="link" marker-end="" d="M1019,647.5C1079,647.5 1079,827.5 1139,827.5" style="stroke-width: 0.55; stroke-opacity: 1; stroke: rgb(80, 80, 80); fill: none;"></path><path class="link" marker-end="" d="M1019,647.5C1099,647.5 1099,827.5 1179,827.5" style="stroke-width: 0.55; stroke-opacity: 1; stroke: rgb(80, 80, 80); fill: none;"></path><path class="link" marker-end="" d="M1059,647.5C1059,647.5 1059,827.5 1059,827.5" style="stroke-width: 0.55; stroke-opacity: 1; stroke: rgb(80, 80, 80); fill: none;"></path><path class="link" marker-end="" d="M1059,647.5C1079,647.5 1079,827.5 1099,827.5" style="stroke-width: 0.55; stroke-opacity: 1; stroke: rgb(80, 80, 80); fill: none;"></path><path class="link" marker-end="" d="M1059,647.5C1099,647.5 1099,827.5 1139,827.5" style="stroke-width: 0.55; stroke-opacity: 1; stroke: rgb(80, 80, 80); fill: none;"></path><path class="link" marker-end="" d="M1059,647.5C1119,647.5 1119,827.5 1179,827.5" style="stroke-width: 0.55; stroke-opacity: 1; stroke: rgb(80, 80, 80); fill: none;"></path><path class="link" marker-end="" d="M1099,647.5C1079,647.5 1079,827.5 1059,827.5" style="stroke-width: 0.55; stroke-opacity: 1; stroke: rgb(80, 80, 80); fill: none;"></path><path class="link" marker-end="" d="M1099,647.5C1099,647.5 1099,827.5 1099,827.5" style="stroke-width: 0.55; stroke-opacity: 1; stroke: rgb(80, 80, 80); fill: none;"></path><path class="link" marker-end="" d="M1099,647.5C1119,647.5 1119,827.5 1139,827.5" style="stroke-width: 0.55; stroke-opacity: 1; stroke: rgb(80, 80, 80); fill: none;"></path><path class="link" marker-end="" d="M1099,647.5C1139,647.5 1139,827.5 1179,827.5" style="stroke-width: 0.55; stroke-opacity: 1; stroke: rgb(80, 80, 80); fill: none;"></path><path class="link" marker-end="" d="M1139,647.5C1099,647.5 1099,827.5 1059,827.5" style="stroke-width: 0.55; stroke-opacity: 1; stroke: rgb(80, 80, 80); fill: none;"></path><path class="link" marker-end="" d="M1139,647.5C1119,647.5 1119,827.5 1099,827.5" style="stroke-width: 0.55; stroke-opacity: 1; stroke: rgb(80, 80, 80); fill: none;"></path><path class="link" marker-end="" d="M1139,647.5C1139,647.5 1139,827.5 1139,827.5" style="stroke-width: 0.55; stroke-opacity: 1; stroke: rgb(80, 80, 80); fill: none;"></path><path class="link" marker-end="" d="M1139,647.5C1159,647.5 1159,827.5 1179,827.5" style="stroke-width: 0.55; stroke-opacity: 1; stroke: rgb(80, 80, 80); fill: none;"></path><path class="link" marker-end="" d="M1179,647.5C1119,647.5 1119,827.5 1059,827.5" style="stroke-width: 0.55; stroke-opacity: 1; stroke: rgb(80, 80, 80); fill: none;"></path><path class="link" marker-end="" d="M1179,647.5C1139,647.5 1139,827.5 1099,827.5" style="stroke-width: 0.55; stroke-opacity: 1; stroke: rgb(80, 80, 80); fill: none;"></path><path class="link" marker-end="" d="M1179,647.5C1159,647.5 1159,827.5 1139,827.5" style="stroke-width: 0.55; stroke-opacity: 1; stroke: rgb(80, 80, 80); fill: none;"></path><path class="link" marker-end="" d="M1179,647.5C1179,647.5 1179,827.5 1179,827.5" style="stroke-width: 0.55; stroke-opacity: 1; stroke: rgb(80, 80, 80); fill: none;"></path><path class="link" marker-end="" d="M1219,647.5C1139,647.5 1139,827.5 1059,827.5" style="stroke-width: 0.55; stroke-opacity: 1; stroke: rgb(80, 80, 80); fill: none;"></path><path class="link" marker-end="" d="M1219,647.5C1159,647.5 1159,827.5 1099,827.5" style="stroke-width: 0.55; stroke-opacity: 1; stroke: rgb(80, 80, 80); fill: none;"></path><path class="link" marker-end="" d="M1219,647.5C1179,647.5 1179,827.5 1139,827.5" style="stroke-width: 0.55; stroke-opacity: 1; stroke: rgb(80, 80, 80); fill: none;"></path><path class="link" marker-end="" d="M1219,647.5C1199,647.5 1199,827.5 1179,827.5" style="stroke-width: 0.55; stroke-opacity: 1; stroke: rgb(80, 80, 80); fill: none;"></path><path class="link" marker-end="" d="M1259,647.5C1159,647.5 1159,827.5 1059,827.5" style="stroke-width: 0.55; stroke-opacity: 1; stroke: rgb(80, 80, 80); fill: none;"></path><path class="link" marker-end="" d="M1259,647.5C1179,647.5 1179,827.5 1099,827.5" style="stroke-width: 0.55; stroke-opacity: 1; stroke: rgb(80, 80, 80); fill: none;"></path><path class="link" marker-end="" d="M1259,647.5C1199,647.5 1199,827.5 1139,827.5" style="stroke-width: 0.55; stroke-opacity: 1; stroke: rgb(80, 80, 80); fill: none;"></path><path class="link" marker-end="" d="M1259,647.5C1219,647.5 1219,827.5 1179,827.5" style="stroke-width: 0.55; stroke-opacity: 1; stroke: rgb(80, 80, 80); fill: none;"></path><circle r="10" class="node" id="0_0" cx="1019" cy="467.5" style="fill: rgb(255, 255, 255); stroke: rgb(51, 51, 51);"></circle><circle r="10" class="node" id="0_1" cx="1059" cy="467.5" style="fill: rgb(255, 255, 255); stroke: rgb(51, 51, 51);"></circle><circle r="10" class="node" id="0_2" cx="1099" cy="467.5" style="fill: rgb(255, 255, 255); stroke: rgb(51, 51, 51);"></circle><circle r="10" class="node" id="0_3" cx="1139" cy="467.5" style="fill: rgb(255, 255, 255); stroke: rgb(51, 51, 51);"></circle><circle r="10" class="node" id="0_4" cx="1179" cy="467.5" style="fill: rgb(255, 255, 255); stroke: rgb(51, 51, 51);"></circle><circle r="10" class="node" id="0_5" cx="1219" cy="467.5" style="fill: rgb(255, 255, 255); stroke: rgb(51, 51, 51);"></circle><circle r="10" class="node" id="1_0" cx="979" cy="647.5" style="fill: rgb(255, 255, 255); stroke: rgb(51, 51, 51);"></circle><circle r="10" class="node" id="1_1" cx="1019" cy="647.5" style="fill: rgb(255, 255, 255); stroke: rgb(51, 51, 51);"></circle><circle r="10" class="node" id="1_2" cx="1059" cy="647.5" style="fill: rgb(255, 255, 255); stroke: rgb(51, 51, 51);"></circle><circle r="10" class="node" id="1_3" cx="1099" cy="647.5" style="fill: rgb(255, 255, 255); stroke: rgb(51, 51, 51);"></circle><circle r="10" class="node" id="1_4" cx="1139" cy="647.5" style="fill: rgb(255, 255, 255); stroke: rgb(51, 51, 51);"></circle><circle r="10" class="node" id="1_5" cx="1179" cy="647.5" style="fill: rgb(255, 255, 255); stroke: rgb(51, 51, 51);"></circle><circle r="10" class="node" id="1_6" cx="1219" cy="647.5" style="fill: rgb(255, 255, 255); stroke: rgb(51, 51, 51);"></circle><circle r="10" class="node" id="1_7" cx="1259" cy="647.5" style="fill: rgb(255, 255, 255); stroke: rgb(51, 51, 51);"></circle><circle r="10" class="node" id="2_0" cx="1059" cy="827.5" style="fill: rgb(255, 255, 255); stroke: rgb(51, 51, 51);"></circle><circle r="10" class="node" id="2_1" cx="1099" cy="827.5" style="fill: rgb(255, 255, 255); stroke: rgb(51, 51, 51);"></circle><circle r="10" class="node" id="2_2" cx="1139" cy="827.5" style="fill: rgb(255, 255, 255); stroke: rgb(51, 51, 51);"></circle><circle r="10" class="node" id="2_3" cx="1179" cy="827.5" style="fill: rgb(255, 255, 255); stroke: rgb(51, 51, 51);"></circle><text class="text" dy=".35em" x="1299" y="467.5" style="font-size: 12px;"></text><text class="text" dy=".35em" x="1299" y="647.5" style="font-size: 12px;"></text><text class="text" dy=".35em" x="1299" y="827.5" style="font-size: 12px;"></text></g><defs><marker id="arrow" viewBox="0 -5 10 10" markerWidth="7" markerHeight="7" orient="auto" refX="40"><path d="M0,-5L10,0L0,5" style="stroke: rgb(80, 80, 80); fill: none;"></path></marker></defs></svg>